HIERARCHY
ROOT Hips
{
  OFFSET -251.623 81.6579 649.661
  CHANNELS 6 Xposition Yposition Zposition Zrotation Xrotation Yrotation
  JOINT Spine
  {
    OFFSET 0 8 -1.41094e-05
    CHANNELS 6 Xposition Yposition Zposition Zrotation Xrotation Yrotation
    JOINT Spine1
    {
      OFFSET 0 8 1.26042e-05
      CHANNELS 6 Xposition Yposition Zposition Zrotation Xrotation Yrotation
      JOINT Spine2
      {
        OFFSET 1.04513e-05 8 1.76281e-05
        CHANNELS 6 Xposition Yposition Zposition Zrotation Xrotation Yrotation
        JOINT Spine3
        {
          OFFSET 0 8 0
          CHANNELS 6 Xposition Yposition Zposition Zrotation Xrotation Yrotation
          JOINT Neck
          {
            OFFSET 5.23214e-05 17.0003 -0.000284318
            CHANNELS 6 Xposition Yposition Zposition Zrotation Xrotation Yrotation
            JOINT Head
            {
              OFFSET 1.06359e-05 10.7999 -6.55967e-05
              CHANNELS 6 Xposition Yposition Zposition Zrotation Xrotation Yrotation
              End Site
              {
                OFFSET 0 20.25 0
              }
            }
          }
          JOINT LeftShoulder
          {
            OFFSET 4.99999 17 -4.12089e-05
            CHANNELS 6 Xposition Yposition Zposition Zrotation Xrotation Yrotation
            JOINT LeftShoulder2
            {
              OFFSET 6.45 0 0
              CHANNELS 6 Xposition Yposition Zposition Zrotation Xrotation Yrotation
              JOINT LeftArm
              {
                OFFSET 6.44999 2.12013e-05 1.39942e-05
                CHANNELS 6 Xposition Yposition Zposition Zrotation Xrotation Yrotation
                JOINT LeftForeArm
                {
                  OFFSET -1.20187e-05 -32.4 -2.00004
                  CHANNELS 6 Xposition Yposition Zposition Zrotation Xrotation Yrotation
                  JOINT LeftHand
                  {
                    OFFSET 0 -25.65 2.00001
                    CHANNELS 6 Xposition Yposition Zposition Zrotation Xrotation Yrotation
                    JOINT LeftHandThumb1
                    {
                      OFFSET -0.499992 -1.49998 2.64999
                      CHANNELS 6 Xposition Yposition Zposition Zrotation Xrotation Yrotation
                      JOINT LeftHandThumb2
                      {
                        OFFSET -2.04424e-05 -3.80005 3.69997
                        CHANNELS 6 Xposition Yposition Zposition Zrotation Xrotation Yrotation
                        JOINT LeftHandThumb3
                        {
                          OFFSET 0 -2.99999 2.70001
                          CHANNELS 6 Xposition Yposition Zposition Zrotation Xrotation Yrotation
                          End Site
                          {
                            OFFSET 1.31774e-05 -2.3 1.79998
                          }
                        }
                      }
                    }
                    JOINT LeftHandIndex
                    {
                      OFFSET 0 -1.90003 1.60001
                      CHANNELS 6 Xposition Yposition Zposition Zrotation Xrotation Yrotation
                      JOINT LeftHandIndex1
                      {
                        OFFSET 0 -8.29999 1.89998
                        CHANNELS 6 Xposition Yposition Zposition Zrotation Xrotation Yrotation
                        JOINT LeftHandIndex2
                        {
                          OFFSET 4.15579e-05 -4.50002 1.1948e-05
                          CHANNELS 6 Xposition Yposition Zposition Zrotation Xrotation Yrotation
                          JOINT LeftHandIndex3
                          {
                            OFFSET 0 -3.39999 0
                            CHANNELS 6 Xposition Yposition Zposition Zrotation Xrotation Yrotation
                            End Site
                            {
                              OFFSET 0 -2.59997 0
                            }
                          }
                        }
                      }
                    }
                    JOINT LeftHandMiddle
                    {
                      OFFSET -0.249996 -2.20002 0.400002
                      CHANNELS 6 Xposition Yposition Zposition Zrotation Xrotation Yrotation
                      JOINT LeftHandMiddle1
                      {
                        OFFSET 0 -8.3 1.00001
                        CHANNELS 6 Xposition Yposition Zposition Zrotation Xrotation Yrotation
                        JOINT LeftHandMiddle2
                        {
                          OFFSET -1.05767e-05 -4.64995 0
                          CHANNELS 6 Xposition Yposition Zposition Zrotation Xrotation Yrotation
                          JOINT LeftHandMiddle3
                          {
                            OFFSET 1.17423e-05 -3.30004 -2.43974e-05
                            CHANNELS 6 Xposition Yposition Zposition Zrotation Xrotation Yrotation
                            End Site
                            {
                              OFFSET -5.01124e-05 -2.69999 1.20661e-05
                            }
                          }
                        }
                      }
                    }
                    JOINT LeftHandRing
                    {
                      OFFSET -0.499995 -2.15002 -0.800003
                      CHANNELS 6 Xposition Yposition Zposition Zrotation Xrotation Yrotation
                      JOINT LeftHandRing1
                      {
                        OFFSET -1.1275e-05 -7.75002 -0.200002
                        CHANNELS 6 Xposition Yposition Zposition Zrotation Xrotation Yrotation
                        JOINT LeftHandRing2
                        {
                          OFFSET -1.16955e-05 -3.79996 0
                          CHANNELS 6 Xposition Yposition Zposition Zrotation Xrotation Yrotation
                          JOINT LeftHandRing3
                          {
                            OFFSET 1.07107e-05 -3.40004 0
                            CHANNELS 6 Xposition Yposition Zposition Zrotation Xrotation Yrotation
                            End Site
                            {
                              OFFSET 0 -2.6 0
                            }
                          }
                        }
                      }
                    }
                    JOINT LeftHandPinky
                    {
                      OFFSET -0.749996 -1.75002 -1.84999
                      CHANNELS 6 Xposition Yposition Zposition Zrotation Xrotation Yrotation
                      JOINT LeftHandPinky1
                      {
                        OFFSET -1.30713e-05 -7.15 -0.999999
                        CHANNELS 6 Xposition Yposition Zposition Zrotation Xrotation Yrotation
                        JOINT LeftHandPinky2
                        {
                          OFFSET 0 -3 -1.25926e-05
                          CHANNELS 6 Xposition Yposition Zposition Zrotation Xrotation Yrotation
                          JOINT LeftHandPinky3
                          {
                            OFFSET 2.14948e-05 -2.35 0
                            CHANNELS 6 Xposition Yposition Zposition Zrotation Xrotation Yrotation
                            End Site
                            {
                              OFFSET 0 -2.09997 0
                            }
                          }
                        }
                      }
                    }
                  }
                }
              }
            }
          }
          JOINT RightShoulder
          {
            OFFSET -5 17 0
            CHANNELS 6 Xposition Yposition Zposition Zrotation Xrotation Yrotation
            JOINT RightShoulder2
            {
              OFFSET -6.45 0 0
              CHANNELS 6 Xposition Yposition Zposition Zrotation Xrotation Yrotation
              JOINT RightArm
              {
                OFFSET -6.45 0 -1.09463e-05
                CHANNELS 6 Xposition Yposition Zposition Zrotation Xrotation Yrotation
                JOINT RightForeArm
                {
                  OFFSET 2.32218e-05 -32.4 -2.00002
                  CHANNELS 6 Xposition Yposition Zposition Zrotation Xrotation Yrotation
                  JOINT RightHand
                  {
                    OFFSET 0 -25.65 2
                    CHANNELS 6 Xposition Yposition Zposition Zrotation Xrotation Yrotation
                    JOINT RightHandThumb1
                    {
                      OFFSET 0.500008 -1.50003 2.64999
                      CHANNELS 6 Xposition Yposition Zposition Zrotation Xrotation Yrotation
                      JOINT RightHandThumb2
                      {
                        OFFSET 0 -3.79998 3.70001
                        CHANNELS 6 Xposition Yposition Zposition Zrotation Xrotation Yrotation
                        JOINT RightHandThumb3
                        {
                          OFFSET 0 -3.00001 2.7
                          CHANNELS 6 Xposition Yposition Zposition Zrotation Xrotation Yrotation
                          End Site
                          {
                            OFFSET -1.59395e-05 -2.29999 1.79999
                          }
                        }
                      }
                    }
                    JOINT RightHandIndex
                    {
                      OFFSET 0 -1.90001 1.6
                      CHANNELS 6 Xposition Yposition Zposition Zrotation Xrotation Yrotation
                      JOINT RightHandIndex1
                      {
                        OFFSET 2.00882e-05 -8.30001 1.89995
                        CHANNELS 6 Xposition Yposition Zposition Zrotation Xrotation Yrotation
                        JOINT RightHandIndex2
                        {
                          OFFSET 0 -4.50002 -1.83652e-05
                          CHANNELS 6 Xposition Yposition Zposition Zrotation Xrotation Yrotation
                          JOINT RightHandIndex3
                          {
                            OFFSET 7.10057e-05 -3.39999 0
                            CHANNELS 6 Xposition Yposition Zposition Zrotation Xrotation Yrotation
                            End Site
                            {
                              OFFSET 1.14823e-05 -2.6 1.65363e-05
                            }
                          }
                        }
                      }
                    }
                    JOINT RightHandMiddle
                    {
                      OFFSET 0.250009 -2.20002 0.399997
                      CHANNELS 6 Xposition Yposition Zposition Zrotation Xrotation Yrotation
                      JOINT RightHandMiddle1
                      {
                        OFFSET -1.49436e-05 -8.29999 1.00001
                        CHANNELS 6 Xposition Yposition Zposition Zrotation Xrotation Yrotation
                        JOINT RightHandMiddle2
                        {
                          OFFSET -5.4586e-05 -4.65 -1.83227e-05
                          CHANNELS 6 Xposition Yposition Zposition Zrotation Xrotation Yrotation
                          JOINT RightHandMiddle3
                          {
                            OFFSET 3.2925e-05 -3.29999 2.10303e-05
                            CHANNELS 6 Xposition Yposition Zposition Zrotation Xrotation Yrotation
                            End Site
                            {
                              OFFSET 0 -2.69999 0
                            }
                          }
                        }
                      }
                    }
                    JOINT RightHandRing
                    {
                      OFFSET 0.500004 -2.15001 -0.799996
                      CHANNELS 6 Xposition Yposition Zposition Zrotation Xrotation Yrotation
                      JOINT RightHandRing1
                      {
                        OFFSET 0 -7.75 -0.199992
                        CHANNELS 6 Xposition Yposition Zposition Zrotation Xrotation Yrotation
                        JOINT RightHandRing2
                        {
                          OFFSET 0 -3.80001 -2.47255e-05
                          CHANNELS 6 Xposition Yposition Zposition Zrotation Xrotation Yrotation
                          JOINT RightHandRing3
                          {
                            OFFSET 0 -3.39999 1.63865e-05
                            CHANNELS 6 Xposition Yposition Zposition Zrotation Xrotation Yrotation
                            End Site
                            {
                              OFFSET 0 -2.59998 0
                            }
                          }
                        }
                      }
                    }
                    JOINT RightHandPinky
                    {
                      OFFSET 0.749992 -1.75 -1.84999
                      CHANNELS 6 Xposition Yposition Zposition Zrotation Xrotation Yrotation
                      JOINT RightHandPinky1
                      {
                        OFFSET 1.63551e-05 -7.15002 -1.00001
                        CHANNELS 6 Xposition Yposition Zposition Zrotation Xrotation Yrotation
                        JOINT RightHandPinky2
                        {
                          OFFSET 0 -3 0
                          CHANNELS 6 Xposition Yposition Zposition Zrotation Xrotation Yrotation
                          JOINT RightHandPinky3
                          {
                            OFFSET 0 -2.34999 0
                            CHANNELS 6 Xposition Yposition Zposition Zrotation Xrotation Yrotation
                            End Site
                            {
                              OFFSET 0 -2.09996 -3.82863e-05
                            }
                          }
                        }
                      }
                    }
                  }
                }
              }
            }
          }
        }
      }
    }
  }
  JOINT LeftUpLeg
  {
    OFFSET 8 0 1.02775e-05
    CHANNELS 6 Xposition Yposition Zposition Zrotation Xrotation Yrotation
    JOINT LeftLeg
    {
      OFFSET 0 -45 -1
      CHANNELS 6 Xposition Yposition Zposition Zrotation Xrotation Yrotation
      JOINT LeftFoot
      {
        OFFSET 0 -41.0001 -2.00006
        CHANNELS 6 Xposition Yposition Zposition Zrotation Xrotation Yrotation
        JOINT LeftToeBase
        {
          OFFSET -3.02701e-05 -7.50001 12.5
          CHANNELS 6 Xposition Yposition Zposition Zrotation Xrotation Yrotation
          JOINT LeftFootToe
          {
            OFFSET 0 0 4
            CHANNELS 6 Xposition Yposition Zposition Zrotation Xrotation Yrotation
            End Site
            {
              OFFSET 0 0 0
            }
          }
        }
      }
    }
  }
  JOINT RightUpLeg
  {
    OFFSET -8 0 -1.02775e-05
    CHANNELS 6 Xposition Yposition Zposition Zrotation Xrotation Yrotation
    JOINT RightLeg
    {
      OFFSET 0 -45 -1.00001
      CHANNELS 6 Xposition Yposition Zposition Zrotation Xrotation Yrotation
      JOINT RightFoot
      {
        OFFSET -1.77913e-05 -41 -1.99992
        CHANNELS 6 Xposition Yposition Zposition Zrotation Xrotation Yrotation
        JOINT RightToeBase
        {
          OFFSET 2.30258e-05 -7.50002 12.5
          CHANNELS 6 Xposition Yposition Zposition Zrotation Xrotation Yrotation
          JOINT RightFootToe
          {
            OFFSET 0 0 4
            CHANNELS 6 Xposition Yposition Zposition Zrotation Xrotation Yrotation
            End Site
            {
              OFFSET 0 0 0
            }
          }
        }
      }
    }
  }
}
MOTION
Frames:	3
Frame Time:	0.0111111
-249.785 74.4059 654.016 -1.79936 5.58584 -176.149 0 8 0 5.78088 9.36351 -10.6964 -5.68434e-14 8 1.13687e-13 0.24921 7.25049 1.3824 -2.84217e-14 8 -1.13687e-13 0.146078 3.62824 0.695723 2.84217e-14 8 1.13687e-13 0.146065 3.62059 0.691756 0 17 0 -3.81452 -1.05484 -1.06589 -2.84217e-14 10.8 1.13687e-13 -8.94076 -2.35404 -2.59595 5 17 0 -2.30895 -3.86894 14.188 6.45 0 0 -1.79758 -1.16584 -0.305994 6.45 -2.84217e-14 0 36.1897 -63.4329 12.0746 -5.68434e-14 -32.4 -2 -3.35008 -17.7836 -4.60483 0 -25.65 2 16.5655 -15.1144 -26.4228 -0.5 -1.5 2.65 16.0185 -53.05 19.1186 0 -3.8 3.7 -0.158643 24.6634 -0.0231066 0 -3 2.7 0.0175502 26.6384 0.0359991 0 -1.9 1.6 1.59028e-15 -9.54166e-15 -1.59028e-15 0 -8.3 1.9 -3.89564 -13.5526 -0.393097 5.68434e-14 -4.5 5.68434e-14 -0.000837685 2.61436e-06 -0.0631788 0 -3.4 0 -1.03384e-05 -2.58551e-05 -0.0624656 -0.25 -2.2 0.4 1.59028e-15 -9.54166e-15 -1.59028e-15 -1.13687e-13 -8.3 1 -2.98966 -8.30624 -0.150113 0 -4.65 5.68434e-14 -0.00166371 0.0289408 -2.04431e-05 0 -3.3 0 -4.07079e-05 0.075841 3.11172e-05 -0.5 -2.15 -0.8 1.59028e-15 -9.54166e-15 -1.59028e-15 0 -7.75 -0.2 -2.68476 -3.78435 0.00270899 5.68434e-14 -3.8 -5.68434e-14 0.000350406 -0.00380023 -0.014112 0 -3.4 0 -2.3335e-05 -0.00363187 -0.0152869 -0.75 -1.75 -1.85 1.59028e-15 -9.54166e-15 -1.59028e-15 0 -7.15 -1 -0.167165 3.52221 0.0298643 0 -3 0 -0.0297176 0.0665159 -0.0370612 -5.68434e-14 -2.35 0 -7.49828e-05 -0.00234428 -0.0345472 -5 17 0 1.27914 -4.34002 -2.25936 -6.45 0 1.13687e-13 -1.96295 0.51877 -0.250453 -6.45 1.42109e-14 0 -40.894 -42.2675 11.5943 0 -32.4 -2 -26.3215 -46.7813 -42.9424 -2.84217e-14 -25.65 2 1.51999 -16.1116 -9.07755 0.5 -1.5 2.65 0.435399 -2.71112 -1.71507 -2.84217e-14 -3.8 3.7 0.527671 46.8949 -0.203371 2.84217e-14 -3 2.7 0.0461524 47.6789 -0.0220688 0 -1.9 1.6 7.95139e-16 -7.95139e-16 -7.95139e-16 0 -8.3 1.9 4.06066 -16.2762 0.425926 2.84217e-14 -4.5 5.68434e-14 77.8802 0.0100892 0.217507 0 -3.4 0 59.5586 -0.118486 0.00785731 0.25 -2.2 0.4 7.95139e-16 -7.95139e-16 -7.95139e-16 5.68434e-14 -8.3 1 3.67409 -15.3698 0.227217 0 -4.65 0 83.3212 -0.157433 -0.0962713 0 -3.3 0 70.9009 -0.0363298 0.179566 0.5 -2.15 -0.8 7.95139e-16 -7.95139e-16 -7.95139e-16 -5.68434e-14 -7.75 -0.2 1.55683 -10.1777 -0.0287692 -5.68434e-14 -3.8 0 53.7474 -0.132975 -0.0104281 1.13687e-13 -3.4 0 37.1417 -0.141834 -0.124377 0.75 -1.75 -1.85 7.95139e-16 -7.95139e-16 -7.95139e-16 -2.84217e-14 -7.15 -1 0.245427 -4.2039 -0.0262986 2.84217e-14 -3 0 70.9886 0.066945 -0.0385602 -1.13687e-13 -2.35 0 53.0341 0.000744223 -0.057114 8 0 1.13687e-13 8.32106 -51.0222 11.3329 -5.68434e-14 -45 -1 0.556752 50.8327 -14.0159 0 -41 -2 -2.11364 0.443297 7.52604 5.68434e-14 -7.5 12.5 -4.90823e-08 4.27529e-06 1.64587e-08 0 0 4 3.60176 -6.6811 38.242 -8 0 0 12.0529 -49.991 15.7194 0 -45 -1 -13.4806 80.1306 16.5225 -5.68434e-14 -41 -2 -1.94611 0.845353 5.58418 0 -7.5 12.5 -1.84631e-07 -24.5174 -4.27319e-07 0 5.55112e-17 4 -2.69906 23.9059 25.9183 
-249.786 74.4 654.028 -1.83748 5.67814 -176.159 5.68434e-14 8 0 5.80083 9.34399 -10.7186 0 8 -1.13687e-13 0.266492 7.24542 1.38247 -2.84217e-14 8 0 0.154794 3.62566 0.695974 -2.84217e-14 8 0 0.154895 3.61777 0.692091 0 17 0 -3.83074 -1.02025 -1.05023 0 10.8 1.13687e-13 -8.97709 -2.27473 -2.5562 5 17 -1.13687e-13 -2.3175 -3.82627 14.21 6.45 1.42109e-14 1.13687e-13 -1.79847 -1.15803 -0.300034 6.45 -4.26326e-14 -1.13687e-13 36.034 -63.3092 11.9593 -5.68434e-14 -32.4 -2 -3.36422 -17.7742 -4.76929 5.68434e-14 -25.65 2 16.4621 -15.124 -26.4572 -0.5 -1.5 2.65 15.9372 -53.1063 18.9723 0 -3.8 3.7 -0.158364 24.7899 -0.0234766 0 -3 2.7 0.017606 26.6095 0.0359981 0 -1.9 1.6 1.59028e-15 -9.54166e-15 -1.59028e-15 0 -8.3 1.9 -3.95415 -13.6912 -0.404915 0 -4.5 0 -0.000837665 2.61436e-06 -0.0644916 0 -3.4 -5.68434e-14 -1.03447e-05 -2.58551e-05 -0.0637582 -0.25 -2.2 0.4 1.59028e-15 -9.54166e-15 -1.59028e-15 0 -8.3 1 -3.02251 -8.36943 -0.151094 0 -4.65 0 -0.0016633 0.0286371 -2.04616e-05 0 -3.3 0 -4.02934e-05 0.0773048 3.08619e-05 -0.5 -2.15 -0.8 1.59028e-15 -9.54166e-15 -1.59028e-15 -5.68434e-14 -7.75 -0.2 -2.67833 -3.70825 0.00157516 0 -3.8 0 0.00036659 -0.00396073 -0.0148029 5.68434e-14 -3.4 0 -2.36778e-05 -0.00379058 -0.0161473 -0.75 -1.75 -1.85 1.59028e-15 -9.54166e-15 -1.59028e-15 -5.68434e-14 -7.15 -1 -0.17856 3.64209 0.0319455 0 -3 0 -0.0297153 0.0678569 -0.0372715 0 -2.35 5.68434e-14 -7.65865e-05 -0.0024374 -0.0347385 -5 17 0 1.24201 -4.30012 -2.23198 -6.45 0 0 -1.9574 0.51802 -0.246143 -6.45 2.84217e-14 -1.13687e-13 -40.8525 -42.2398 11.6264 5.68434e-14 -32.4 -2 -26.2673 -46.7689 -42.8528 -4.26326e-14 -25.65 2 1.51202 -16.1585 -9.08371 0.5 -1.5 2.65 0.419273 -2.70582 -1.7055 -2.84217e-14 -3.8 3.7 0.527241 46.8638 -0.202872 0 -3 2.7 0.0450755 47.6861 -0.0206876 0 -1.9 1.6 2.06902e-32 7.95139e-16 -1.49089e-15 0 -8.3 1.9 4.06763 -16.2889 0.426128 0 -4.5 0 77.8977 0.00981067 0.217759 0 -3.4 -5.68434e-14 59.5835 -0.118178 0.00783017 0.25 -2.2 0.4 2.06902e-32 7.95139e-16 -1.49089e-15 5.68434e-14 -8.3 1 3.68175 -15.3895 0.227796 0 -4.65 -5.68434e-14 83.3332 -0.156563 -0.096154 -1.13687e-13 -3.3 0 70.9244 -0.0363328 0.178798 0.5 -2.15 -0.8 2.06902e-32 7.95139e-16 -1.49089e-15 -2.84217e-14 -7.75 -0.2 1.5573 -10.1961 -0.0283172 0 -3.8 0 53.7848 -0.132159 -0.011157 0 -3.4 0 37.169 -0.141679 -0.124329 0.75 -1.75 -1.85 2.06902e-32 7.95139e-16 -1.49089e-15 0 -7.15 -1 0.25209 -4.26089 -0.0265562 -2.84217e-14 -3 2.84217e-14 70.9907 0.065164 -0.0390254 -1.13687e-13 -2.35 0 53.0366 0.000855585 -0.0557119 8 -2.84217e-14 1.13687e-13 8.34358 -50.9081 11.3947 0 -45 -1 0.55462 50.8014 -14.0193 2.84217e-14 -41 -2 -2.11885 0.523202 7.48326 5.68434e-14 -7.5 12.5 -4.90823e-08 4.27529e-06 1.64588e-08 0 7.10543e-15 4 3.61058 -6.74206 38.2469 -8 0 0 12.0143 -49.9159 15.7053 5.68434e-14 -45 -1 -13.5166 80.1453 16.5609 5.68434e-14 -41 -2 -1.95025 0.849075 5.59224 -5.68434e-14 -7.5 12.5 -1.84659e-07 -24.5208 -4.27331e-07 0 0 4 -2.70517 23.9134 25.9233 
-249.79 74.3955 654.038 -1.87457 5.76888 -176.171 0 8 1.13687e-13 5.82073 9.32578 -10.7411 5.68434e-14 8 -1.13687e-13 0.283759 7.24072 1.38254 2.84217e-14 8 0 0.163533 3.62327 0.696178 2.84217e-14 8 0 0.163523 3.61571 0.692418 0 17 0 -3.84558 -0.985973 -1.03342 2.84217e-14 10.8 0 -9.01018 -2.19623 -2.51372 5 17 0 -2.32666 -3.78468 14.228 6.45 1.42109e-14 0 -1.7989 -1.15244 -0.293742 6.45 -5.68434e-14 0 35.8929 -63.1804 11.8514 -5.68434e-14 -32.4 -2 -3.37889 -17.7636 -4.94971 5.68434e-14 -25.65 2 16.4019 -15.1653 -26.4593 -0.5 -1.5 2.65 15.8437 -53.1744 18.8489 -1.13687e-13 -3.8 3.7 -0.158052 24.9327 -0.0238361 0 -3 2.7 0.0176352 26.5986 0.0359924 0 -1.9 1.6 1.59028e-15 -9.54166e-15 -3.18055e-15 0 -8.3 1.9 -3.99831 -13.7956 -0.41393 0 -4.5 -5.68434e-14 -0.000837479 2.61436e-06 -0.0657955 0 -3.4 0 -1.0346e-05 -2.58551e-05 -0.0650401 -0.25 -2.2 0.4 1.59028e-15 -9.54166e-15 -3.18055e-15 0 -8.3 1 -3.047 -8.40653 -0.151116 0 -4.65 -5.68434e-14 -0.00166291 0.0283172 -2.044e-05 0 -3.3 0 -3.98212e-05 0.0787438 3.05524e-05 -0.5 -2.15 -0.8 1.59028e-15 -9.54166e-15 -3.18055e-15 5.68434e-14 -7.75 -0.2 -2.66836 -3.60388 0.00162352 0 -3.8 0 0.000382689 -0.0041222 -0.0155065 0 -3.4 1.13687e-13 -2.39958e-05 -0.00395042 -0.0169587 -0.75 -1.75 -1.85 1.59028e-15 -9.54166e-15 -3.18055e-15 0 -7.15 -1 -0.193624 3.78552 0.0348722 0 -3 -5.68434e-14 -0.029713 0.0691119 -0.0374558 -5.68434e-14 -2.35 0 -7.8157e-05 -0.00253003 -0.0349051 -5 17 0 1.20588 -4.26301 -2.21115 -6.45 -1.42109e-14 0 -1.95132 0.51741 -0.241891 -6.45 4.26326e-14 0 -40.8103 -42.2173 11.6672 5.68434e-14 -32.4 -2 -26.2075 -46.758 -42.7668 -2.84217e-14 -25.65 2 1.50775 -16.199 -9.08899 0.5 -1.5 2.65 0.394565 -2.70135 -1.6972 -2.84217e-14 -3.8 3.7 0.526521 46.8561 -0.20252 5.68434e-14 -3 2.7 0.0441978 47.6731 -0.0195751 0 -1.9 1.6 -1.59028e-15 0 -1.39149e-15 0 -8.3 1.9 4.07229 -16.2972 0.426321 0 -4.5 0 77.917 0.00953422 0.218005 -1.13687e-13 -3.4 0 59.611 -0.117859 0.00780247 0.25 -2.2 0.4 -1.59028e-15 0 -1.39149e-15 2.84217e-14 -8.3 1 3.68769 -15.4055 0.228364 0 -4.65 0 83.3427 -0.155663 -0.0960331 1.13687e-13 -3.3 0 70.9427 -0.036335 0.178018 0.5 -2.15 -0.8 -1.59028e-15 0 -1.39149e-15 0 -7.75 -0.2 1.55678 -10.2096 -0.0278942 -5.68434e-14 -3.8 -5.68434e-14 53.8063 -0.131338 -0.0118805 1.13687e-13 -3.4 0 37.1847 -0.141518 -0.124277 0.75 -1.75 -1.85 -1.59028e-15 0 -1.39149e-15 0 -7.15 -1 0.257901 -4.31014 -0.0268017 0 -3 0 70.9745 0.063272 -0.03948 -1.13687e-13 -2.35 0 53.0175 0.000968179 -0.0540194 8 0 1.13687e-13 8.36696 -50.7961 11.4595 0 -45 -1 0.552555 50.7711 -14.0229 2.84217e-14 -41 -2 -2.1225 0.599501 7.43945 5.68434e-14 -7.5 12.5 -4.90823e-08 4.27529e-06 1.64587e-08 -1.13687e-13 7.10543e-15 4 3.6173 -6.79584 38.2512 -8 0 1.13687e-13 11.9729 -49.841 15.6896 0 -45 -1 -13.5489 80.1583 16.5954 0 -41 -2 -1.95396 0.852829 5.60243 0 -7.5 12.5 -1.84691e-07 -24.5246 -4.27344e-07 0 0 4 -2.70812 23.9148 25.9273 
